<?xml version="1.0" encoding="UTF-8" standalone="no"?>
<svg width="203" xmlns="http://www.w3.org/2000/svg" version="1.1" height="217">
 <rect y="-20.251" x="-45.279" height="291.92" width="276.4" fill="#C41E3A"/>
 <path d="m171.4 175.9l-1.95 7.5c-0.2 0.5-1.4 1.7-6.2 4.5-4.6 2.7-11.4 3.1-11.5 3.1 0 0-73.8-0.001-76.6-0.001v-13.6c15 3.3 30.6 4.8 47.4 4.7 37-0.2 56.9-22.8 56.9-44v-0.09c0-19.3-14.2-40.5-40.5-42.6v-4.5h21.1v-24.41h-66.65v24.5h21.4v3.4c-15.2 0-34.2-2.3-39.6-2.9v-37.1c17.5-2 54.7 4.1 72.7 10.7l3.5 1.3 12.6-26.4h-6.5l0.7 0.2-0.8-0.24c-3-0.1-6.2-0.5-9-1.2l-3-0.7c-15.3-3.66-46.8-10.96-70.2-8.66v-3.8h9.9v-25.1h-45.2v25h10.1v7.6c-18.4 3.9-36.7 17.9-36.7 41.1s18.2 36.82 36.7 40.1v28.6c-1.6-0.9-3.5-1.9-3.5-1.9l-1.1-0.7-9.2-6-15.3 21.9 2.5 2.4c0.8 0.8 0.9 0.8 4.9 2 0 0 3.4 1.1 3.6 1.1 0.6 0.3 7.8 3.8 18.1 8.3v20.9h-17.5v25.6h120c2.1-0.1 12.4-0.6 18.7-4 11.6-6.2 16.9-12.1 17-12.2l2.5-2.6-19.3-21.8zm-121.4-89.1c-6.4-1.6-10.2-6.7-10.2-14.4 0-6.8 4.7-12.1 10.2-14.6v29zm24.4 29.3c8.1 0.9 26.6 2.8 41.1 2.9v26.5h22.7v-25.2c3.5 0.6 6.7 2.2 9.3 4.7 3.4 3.3 5.3 7.9 5.3 12.9 0 6.1-3.4 11.1-9.7 14.6-6.5 3.6-16 5.4-27.6 5.4-18 0-35-4.7-41.2-6.7 0.1-3.7 0.1-29.2 0.1-35.1z" fill="#183561"/>
 <path fill="#fff" clip-rule="evenodd" d="m134.9 99.3v-12.4h21.1v-16.3h-58.5v16.3h21.3v11.6c-19.2 0.5-47.9-3.4-47.9-3.4v-44.4c16-3.3 57.3 3 78.3 10.5l8.2-17.2s-4.6-0.1-10-1.3c-14.3-3.3-52.2-12.8-76.5-8.8v-12.5h10v-16.8h-36.9v16.8h10.1v15c-17.8 2.5-36.7 15.5-36.7 37.8 0 22.7 18.8 34.7 36.7 36.7v38.6c-3.3-1-6.7-3.2-10.8-5.6-2.4-1.5-6.1-4-6.1-3.9l-11 15.8c0.1 0.1 4.9 1.5 7.2 2.3 5.8 2.8 12.8 6.4 20.7 9.4v27.8h-17.5v17.3h115.9s10.8-0.3 16.8-3.5c10.7-5.7 15.8-11.3 15.8-11.3l-11.7-13.2c-0.7 2.6-4.7 5.1-8.28 7.1-5.5 3.2-13.3 3.6-13.3 3.61h-80.82v-22.6c14.7 3.6 31.2 5.7 51.6 5.5 33-0.2 52.8-19.3 52.8-40 0-18.51-13.4-38.91-40.5-38.91m-80.8-46.9v39.2c-11.6-0.3-18.4-8.1-18.4-19.1 0.1-10.9 9.5-18.9 18.4-20.1zm64.8 63.3v26.5h16v-25.4c12.4-0.1 21.3 9.8 21.3 21.3 0 12.1-11 23.4-40.6 23.4-23.1 0-44.6-7.6-44.6-7.6v-41.6s29.3 3.5 47.9 3.4z" fill-rule="evenodd"/>
</svg>
