<?xml version="1.0" encoding="UTF-8" standalone="no"?>
<!-- Generator: Adobe Illustrator 14.0.0, SVG Export Plug-In . SVG Version: 6.00 Build 43363)  -->

<svg
   xmlns:dc="http://purl.org/dc/elements/1.1/"
   xmlns:cc="http://creativecommons.org/ns#"
   xmlns:rdf="http://www.w3.org/1999/02/22-rdf-syntax-ns#"
   xmlns:svg="http://www.w3.org/2000/svg"
   xmlns="http://www.w3.org/2000/svg"
   xmlns:sodipodi="http://sodipodi.sourceforge.net/DTD/sodipodi-0.dtd"
   xmlns:inkscape="http://www.inkscape.org/namespaces/inkscape"
   version="1.1"
   id="Layer_1"
   x="0px"
   y="0px"
   width="239.99973"
   height="137.29672"
   viewBox="0 0 239.99973 137.29673"
   xml:space="preserve"
   inkscape:version="0.91 r13725"
   sodipodi:docname="Orioles.svg"><metadata
     id="metadata3402"><rdf:RDF><cc:Work
         rdf:about=""><dc:format>image/svg+xml</dc:format><dc:type
           rdf:resource="http://purl.org/dc/dcmitype/StillImage" /><dc:title></dc:title></cc:Work></rdf:RDF></metadata><defs
     id="defs3400" /><sodipodi:namedview
     pagecolor="#ffffff"
     bordercolor="#666666"
     borderopacity="1"
     objecttolerance="10"
     gridtolerance="10"
     guidetolerance="10"
     inkscape:pageopacity="0"
     inkscape:pageshadow="2"
     inkscape:window-width="1287"
     inkscape:window-height="759"
     id="namedview3398"
     showgrid="false"
     fit-margin-top="0"
     fit-margin-left="0"
     fit-margin-right="0"
     fit-margin-bottom="0"
     inkscape:zoom="3.8435374"
     inkscape:cx="75.249283"
     inkscape:cy="68.647003"
     inkscape:window-x="0"
     inkscape:window-y="0"
     inkscape:window-maximized="0"
     inkscape:current-layer="Layer_1" /><g
     id="g3390"
     transform="translate(-5.000274,-4.8502773)"><path
       style="fill:#000000"
       d="m 231.401,37.603 c -0.263,-2.688 -1.945,-6.804 -5.391,-13.322 -0.534,-1.008 -0.951,-1.802 -1.195,-2.306 -0.638,-1.371 -0.759,-2.998 -0.337,-4.58 l 0.876,-3.293 -3.31,0.818 -8.995,2.229 -0.412,0.48 c -1.575,1.809 -3.366,5.142 -6.005,11.133 -1.443,3.279 -3.867,8.043 -5.808,11.878 l -0.052,0.103 c -4.771,9.406 -7.908,12.968 -11.545,13.125 -1.346,0.059 -2.283,-0.244 -3.408,-1.891 5.935,-2.777 9.521,-6.342 11.531,-8.965 3.614,-4.711 5.029,-10.538 3.689,-15.199 -1.383,-4.868 -6.314,-7.842 -10.979,-6.628 -4.636,1.203 -8.958,4.816 -12.169,10.172 -1.345,2.241 -5.587,10.074 -5.091,18.855 -2.863,4.137 -6.787,8.862 -9.469,10.547 -2.175,1.362 -3.276,1.296 -3.449,1.207 -0.488,-0.258 -0.905,-0.579 -1.093,-1.863 -0.323,-2.273 0.164,-5.479 1.078,-9.853 6.586,-5.124 11.78,-10.781 15.44,-16.819 3.516,-5.808 5.645,-12.004 6.319,-18.417 0.417,-3.928 -0.614,-7.048 -2.986,-9.026 -1.936,-1.62 -5.315,-1.216 -6.989,-0.583 -9.107,3.455 -17.854,20.269 -21.145,31.102 -1.177,3.858 -2.016,7.02 -2.851,10.713 -0.975,0.759 -1.969,1.493 -2.831,2.081 -0.37,-3.75 -1.317,-6.178 -2.297,-8.353 -2.049,-4.605 -5.208,-6.251 -7.734,-7.184 -4.125,-1.505 -8.906,-0.685 -13.123,2.262 -3.645,2.543 -5.618,6.506 -5.398,10.729 -3.227,4.224 -5.833,11.027 -6.291,16.573 -0.295,3.624 -0.244,6.724 0.16,9.232 -2.044,3.53 -5.97,8.218 -8.391,8.56 -1.036,0.155 -1.554,-0.032 -1.646,-0.154 -0.459,-0.576 -0.337,-1.584 -0.159,-2.32 1.437,-5.921 8.001,-25.17 11.864,-35.215 l 1.444,-3.771 -2.17,0.621 c 1.378,-1.275 2.475,-2.944 3.026,-4.798 0.689,-2.341 0.382,-4.617 -0.832,-6.241 -1.055,-1.406 -2.653,-2.185 -4.512,-2.185 -3.717,0 -7.57,3.202 -8.772,7.289 -0.687,2.337 -0.385,4.613 0.834,6.237 0.729,0.973 1.718,1.643 2.883,1.959 -1.706,0.539 -3.356,1.062 -3.853,1.207 l -0.935,0.279 -0.366,0.905 c -1.978,4.936 -4.683,12.886 -7.298,20.573 -1.751,5.14 -3.405,9.999 -4.681,13.481 -2.348,3.994 -6.464,7.622 -8.531,8.832 -0.759,0.445 -1.289,0.459 -1.39,0.412 -0.073,-0.057 -0.354,-0.534 -0.349,-1.781 0.042,-8.963 8.072,-22.632 13.814,-28.489 1.584,-1.612 1.292,-4.045 0.033,-5.311 -1.043,-1.047 -2.944,-3.192 -3.537,-4.184 -0.466,-0.778 -1.174,-1.277 -2.001,-1.418 -0.952,-0.162 -1.98,0.171 -2.899,0.942 -2.937,2.449 -6.511,3.021 -11.59,1.87 -3.534,-0.804 -5.449,0.017 -6.208,2.674 -0.208,0.724 -0.366,1.908 -0.53,3.155 -0.094,0.701 -0.178,1.354 -0.262,1.784 -0.253,1.387 -1.742,3.04 -3.886,4.451 0.117,-21.841 -7.369,-29.262 -13.856,-31.591 -5.714,-2.058 -11.501,-1.531 -16.28,1.465 -5.058,3.173 -8.466,8.695 -9.047,14.559 -8.28,8.425 -13.811,20.793 -14.835,33.248 -0.973,11.911 1.254,21.83 6.445,28.674 3.108,4.092 8.212,6.862 13.319,7.223 5.869,0.422 11.4,-1.603 16.432,-6.014 6.167,-5.404 10.177,-13.064 12.462,-18.553 2.754,-6.629 4.512,-13.674 5.006,-20.014 4.036,-1.601 8.69,-5.069 10.879,-8.705 1.111,0.314 2.278,0.387 3.462,0.328 -7.303,9.651 -11.379,22.863 -11.023,29.094 0.104,1.852 0.427,7.48 5.393,9.375 2.803,1.063 7.013,0.389 10.015,-1.604 1.802,-1.205 5.813,-4.144 9.419,-8.597 1.938,3.524 5.517,3.524 6.914,3.524 6.171,0 14.238,-5.742 19.493,-13.547 1.882,2.551 4.608,4.088 7.835,4.336 6.907,0.516 13.343,-4.115 16.404,-8.639 3.221,-4.772 5.615,-9.624 6.745,-17.546 0.385,-0.241 0.891,-0.56 1.448,-0.93 -0.347,2.789 -0.492,5.875 -0.323,7.917 0.206,2.461 1.331,4.845 3.065,6.553 1.664,1.628 3.919,2.471 6.361,2.375 6.628,-0.263 15.928,-7.993 21.014,-15.481 2.391,3.035 5.668,4.62 9.919,4.819 6.591,0.307 12.586,-3.712 18.333,-12.3 0.886,-1.317 1.739,-2.796 2.573,-4.355 0.276,1.868 1.14,3.682 2.382,4.934 1.542,1.54 4.631,3.176 8.259,2.719 6.028,-0.769 10.796,-4.641 12.788,-10.158 1.969,1.685 1.94,3.284 1.94,3.368 -0.122,3.625 -3.919,6.375 -6.769,8.133 -3.075,1.903 -7.168,3.417 -9.361,4.235 -8.161,3.028 -64.35,23.087 -113.93,40.777 -36.169,12.914 -67.411,24.061 -75.138,26.864 l -2.492,0.899 1.54,2.166 1.057,1.481 0.56,0.787 0.975,0.047 c 15.152,0.807 22.214,2.606 29.055,7.378 l 1.414,0.979 1.19,-1.242 c 7.685,-8.024 19.498,-13.565 30.919,-18.928 l 4.055,-1.903 c 4.427,-2.109 63.035,-26.404 98.032,-40.472 17.021,-6.839 30.474,-12.244 33.015,-13.418 6.993,-3.225 14.137,-7.807 14.137,-17.341 0.002,-4.989 -3.194,-8.936 -9.04,-11.24 M 36.432,41.779 c 1.589,-1.066 3.415,-1.212 5.28,-0.436 3.72,1.549 5.393,11.001 4.2,23.252 -3.337,-0.087 -5.911,-1.2 -8.376,-3.591 -2.984,-2.89 -4.838,-7.064 -4.838,-10.894 0,-3.606 1.43,-6.798 3.734,-8.331 m 3.93,47.801 c -2.602,6.268 -5.639,10.791 -8.559,12.741 -2.032,1.364 -3.246,1.626 -5.4,1.172 -7.226,-1.519 -8.309,-15.413 -7.285,-23.808 0.647,-5.354 2.714,-10.777 5.756,-15.235 5.074,6.017 11.552,8.684 20.063,8.276 -0.782,5.389 -2.554,11.979 -4.575,16.854 m 85.721,-42.633 c 0.07,-2.103 1.099,-4.123 2.571,-5.013 0.988,-0.593 2.215,-0.542 3.199,0.157 1.673,1.174 2.512,5.695 1.228,11.438 -2.386,0.387 -3.961,-0.797 -5.306,-2.177 -1.146,-1.173 -1.747,-2.738 -1.692,-4.405 m -1.198,27.782 c -0.509,0.323 -1.156,0.398 -1.435,0.335 -2.74,-0.575 -3.293,-6.863 -2.482,-11.115 l 0.167,-0.886 c 0.25,-1.348 0.511,-2.726 0.897,-4.01 2.909,1.694 6.277,2.693 9.379,2.775 -1.503,6.028 -4.142,11.332 -6.526,12.901 m 47.805,-59.68 c 0.343,-0.328 0.614,-0.542 0.82,-0.682 0.065,0.624 0.015,1.673 -0.38,2.927 -1.805,5.789 -5.587,13.324 -10.063,19.02 2.939,-8.914 7.626,-19.346 9.623,-21.265 m 18.526,16.368 c 0.839,-0.546 1.575,-0.682 1.813,-0.642 0.38,0.363 0.45,1.24 0.207,2.604 -0.783,4.411 -3.155,7.357 -8.18,9.923 1.069,-6.168 4.829,-11.02 6.16,-11.885 m 20.63,5.654 c 1.279,-2.768 2.578,-5.597 3.82,-7.798 0.801,2.262 1.94,4.626 2.934,6.478 -3.337,0.324 -5.709,1.42 -7.331,2.574 0.112,-0.253 0.244,-0.527 0.244,-0.527 l 0.333,-0.727 z m 7.18,9.78 c -0.693,0.738 -1.388,1.169 -2.911,1.169 -0.928,0 -1.631,-0.44 -1.94,-1.207 -0.281,-0.703 -0.22,-1.8 0.788,-2.77 1.063,-1.013 2.995,-1.512 5.521,-1.449 0.01,1.74 -0.478,3.193 -1.458,4.257"
       id="path3392"
       inkscape:connector-curvature="0" /><path
       style="fill:#df4601"
       d="m 22.009,47.252 c -8.937,8.787 -13.871,21.455 -14.78,32.513 -0.935,11.409 1.158,20.859 6.044,27.3 2.876,3.788 7.549,6.127 11.857,6.432 5.313,0.375 10.35,-1.481 14.965,-5.526 9.926,-8.69 16.247,-25.955 16.868,-38.504 4.477,-1.343 10.559,-5.972 11.831,-9.883 2.545,1.699 6.185,0.773 9.523,0.147 -9.283,9.269 -14.468,25.396 -14.102,31.79 0.167,2.925 0.841,6.365 4.102,7.612 2.238,0.853 5.777,0.196 8.18,-1.401 3.583,-2.391 8.149,-6.422 11.332,-11.466 0.551,5.845 3.94,6.052 6.12,6.052 5.761,0 14.667,-6.413 19.596,-15.591 1.493,4.11 4.439,6.131 7.882,6.384 6.023,0.46 11.777,-3.6 14.59,-7.75 3.385,-5.012 5.564,-9.849 6.544,-17.621 0,0 3.698,-2.267 6.253,-4.277 -0.891,2.573 -1.542,8.991 -1.256,12.291 0.178,2.121 1.157,4.008 2.465,5.288 1.247,1.226 2.935,1.875 4.875,1.802 6.474,-0.255 16.786,-9.234 21.062,-17.304 2.404,4.884 5.995,6.457 10.045,6.645 5.944,0.279 11.283,-3.518 16.57,-11.405 2.573,-3.853 4.979,-9.202 7.106,-13.826 2.367,-5.126 4.701,-10.332 6.961,-12.485 -0.047,3.563 3.984,11.142 5.438,13.245 -9.581,-0.621 -13.139,5.016 -13.336,8.1 -0.136,2.081 0.783,4.141 1.88,5.233 1.181,1.184 3.693,2.513 6.576,2.149 5.602,-0.715 10.679,-4.734 11.808,-11.349 4.299,2.149 5.241,5.138 5.185,6.63 -0.154,4.584 -4.472,7.774 -7.711,9.769 -3.253,2.008 -7.462,3.572 -9.727,4.411 -8.175,3.035 -64.368,23.089 -113.948,40.789 -35.895,12.806 -67.406,24.056 -75.131,26.859 l 1.057,1.481 c 16.142,0.862 23.252,2.953 30.101,7.729 8.899,-9.286 23.166,-15.375 35.564,-21.263 4.732,-2.245 63.651,-26.648 98.146,-40.514 16.997,-6.831 30.427,-12.228 32.921,-13.381 6.74,-3.108 12.975,-7.137 12.975,-15.513 0,-5.419 -4.664,-8.402 -9.084,-9.841 0.66,-2.789 -3.385,-10.507 -5.124,-13.784 -0.544,-1.031 -0.975,-1.845 -1.232,-2.393 -0.862,-1.837 -1.008,-3.923 -0.464,-5.951 l -8.377,2.081 c -1.763,2.023 -3.9,6.556 -5.682,10.613 -1.477,3.361 -3.886,8.102 -5.901,12.082 -4.565,8.993 -8.18,14.004 -13.261,14.224 -3.084,0.136 -4.678,-1.535 -6.356,-4.856 5.841,-2.315 10.088,-5.702 12.807,-9.234 3.464,-4.523 4.411,-9.701 3.347,-13.418 -1.026,-3.604 -4.753,-6.223 -8.541,-5.243 -4.162,1.087 -8.053,4.434 -10.949,9.267 -2.691,4.488 -5.354,11.531 -4.763,18.375 -2.245,3.319 -6.896,9.464 -10.453,11.695 -2.044,1.284 -4.144,1.971 -5.461,1.277 -1.163,-0.612 -1.885,-1.552 -2.143,-3.356 -0.389,-2.702 0.174,-6.208 1.247,-11.269 13.912,-10.615 20.344,-22.561 21.581,-34.313 0.286,-2.669 -0.122,-5.478 -2.269,-7.268 -1.195,-0.996 -3.792,-0.701 -4.987,-0.246 -8.297,3.146 -16.721,19.235 -19.937,29.803 -1.354,4.437 -2.188,7.737 -2.967,11.259 0,0 -4.828,3.881 -6.497,4.277 -0.019,-5.32 -1.087,-8.194 -2.269,-10.866 -1.734,-3.872 -4.313,-5.266 -6.6,-6.105 -3.68,-1.348 -7.824,-0.398 -11.274,2.016 -2.529,1.77 -5.048,5.121 -4.481,9.715 -3.181,3.79 -5.914,10.718 -6.356,16.106 -0.276,3.349 -0.279,6.698 0.263,9.419 -1.664,3.101 -6.394,9.65 -10.209,10.198 -1.418,0.207 -2.794,0.02 -3.518,-0.899 -0.767,-0.976 -0.947,-2.335 -0.537,-4.041 1.474,-6.078 8.086,-25.428 11.941,-35.463 -1.102,0.321 -8.29,2.618 -9.5,2.972 -3.321,8.262 -8.857,25.568 -12.023,34.17 -2.465,4.284 -6.883,8.269 -9.344,9.703 -2.046,1.199 -4.786,1.293 -4.765,-3.117 0.038,-9.807 8.468,-23.849 14.391,-29.884 0.816,-0.832 0.521,-2.004 0.042,-2.477 -0.926,-0.921 -3.066,-3.295 -3.837,-4.573 -0.115,-0.188 -0.307,-0.415 -0.612,-0.469 -0.356,-0.059 -0.82,0.12 -1.27,0.504 -3.424,2.85 -7.657,3.574 -13.329,2.285 -3.253,-0.738 -3.542,0.279 -3.823,1.261 -0.276,0.963 -0.525,3.532 -0.748,4.751 -0.593,3.211 -4.615,6.03 -7.964,7.488 C 57.885,46.747 53.388,35.34 44.709,32.225 39.637,30.399 34.504,30.781 30.182,33.497 c -4.557,2.866 -7.864,8.086 -8.173,13.755 m 83.329,-6.506 c 2.829,0 5.892,-2.611 6.841,-5.833 0.947,-3.223 -0.577,-5.838 -3.408,-5.838 -2.832,0 -5.892,2.616 -6.844,5.838 -0.946,3.222 0.585,5.833 3.411,5.833 m 65.961,-27.15 c 3.984,-3.818 4.982,0.363 3.754,4.298 -2.766,8.862 -9.258,20.135 -16.035,25.474 1.795,-8.695 9.06,-26.683 12.281,-29.772 M 24.847,61.118 c 5.421,7.711 12.368,10.53 22.388,9.405 -0.558,5.952 -2.604,14.023 -5.013,19.831 -1.945,4.692 -5.138,10.861 -9.298,13.646 -2.536,1.697 -4.308,2.021 -6.935,1.463 -8.644,-1.819 -10.043,-16.383 -8.874,-26.021 0.792,-6.549 3.591,-13.229 7.732,-18.324 m 22.875,5.449 c -5.175,0.352 -8.653,-1.273 -11.587,-4.116 -3.358,-3.258 -5.449,-7.985 -5.449,-12.34 0,-4.268 1.772,-8.107 4.629,-10.008 2.149,-1.435 4.692,-1.652 7.172,-0.619 6.039,2.52 6.505,16.262 5.235,27.083 m 86.231,-6.926 c -1.289,6.841 -4.364,14.409 -7.969,16.767 -0.912,0.596 -2.095,0.807 -2.944,0.629 -4.533,-0.957 -4.94,-8.767 -4.045,-13.466 0.474,-2.491 0.877,-5.231 2.093,-7.582 4.02,3.155 9.23,4.327 12.865,3.652 m 0.797,-4.46 c -4.068,1.327 -6.656,-0.619 -8.416,-2.421 -1.526,-1.57 -2.333,-3.654 -2.26,-5.874 0.087,-2.803 1.474,-5.426 3.537,-6.67 1.607,-0.973 3.693,-0.979 5.404,0.228 2.949,2.085 3.409,8.458 1.735,14.737 m 48.005,-8.625 c 0,-8.055 5.044,-15.316 7.364,-16.826 1.34,-0.876 3.141,-1.385 4.157,-0.539 1.093,0.905 1.327,2.384 0.942,4.54 -1.077,6.044 -4.846,9.722 -12.463,12.825 m 39.586,-5.852 c 0.581,3.614 -0.469,6.028 -1.847,7.516 -1.153,1.247 -2.434,1.81 -4.379,1.81 -3.914,0 -5.559,-4.552 -2.54,-7.435 1.8,-1.73 4.922,-2.304 8.766,-1.891"
       id="path3394"
       inkscape:connector-curvature="0" /><path
       style="fill:#000000"
       d="m 238.044,30.325 -1.538,0 0,4.177 -1.04,0 0,-4.177 -1.528,0 0,-0.907 4.106,0 m 6.956,5.084 -1.036,0 0,-4.043 -0.023,0 -1.472,4.043 -1.013,0 -1.425,-4.043 -0.023,0 0,4.043 -1.036,0 0,-5.083 1.8,0 1.182,3.321 0.028,0 1.232,-3.321 1.786,0 0,5.083 z"
       id="path3396"
       inkscape:connector-curvature="0" /></g></svg>