<?xml version="1.0" encoding="utf-8"?>
<!DOCTYPE svg PUBLIC "-//W3C//DTD SVG 1.1//EN" "http://www.w3.org/Graphics/SVG/1.1/DTD/svg11.dtd">
<svg version="1.1" xmlns="http://www.w3.org/2000/svg" xmlns:xlink="http://www.w3.org/1999/xlink" x="0px" y="0px" width="250px" height="250.159px" viewBox="0 0 250 250.159" enable-background="new 0 0 250 250.159" xml:space="preserve">
<rect y="0.08" fill="#1C3465" width="250" height="250"/>
<path fill="#FFFFFF" stroke="#FFFFFF" stroke-width="0.16" d="M199.701,62.994c-6.942-6.222-19.107-14.325-36.645-14.325c-9.177,0-87.857,0.055-87.857,0.055v1.57c0,0,2.023,0.071,2.721,0.055c3.042,0.054,4.908,1.178,6.604,2.988c1.696,1.805,2.688,2.388,2.688,7.116c0,9.821,0,31.801,0,31.801H62.614c-1.707,0-2.967-0.769-3.872-1.799c-0.899-1.03-1.227-2.05-1.227-3.534V42.415c0-4.815,1.592-8.103,4.057-11.348c2.459-3.239,7.765-6.189,13.163-6.189h59.044c1.544,0,2.856,0.409,3.959,1.532c1.107,1.118,1.574,2.192,1.574,3.43c0,1.238-0.254,2.814-2.256,4.319c-2.27,1.532-4.984,1.489-4.984,1.489v1.663h33.775V25.063c0-6.811-2.191-12.853-7.563-17.716c-5.365-4.864-10.697-7.263-23.632-7.263H76.399L76.377,0.08c-13.272,0-24.941,6.135-32.194,14.172S32.721,33.288,32.721,44.205v43.481c0,8.414,3.916,16.157,9.041,20.917c5.131,4.76,11.397,8.397,21.392,8.403c24.042,0,70.55,0,72.87,0c1.428,0,2.834,0.714,3.711,1.712c0.88,0.998,1.306,2.188,1.306,3.255v40.477c0,4.342-1.812,8.616-4.304,11.468c-2.491,2.857-6.941,6.211-13.692,6.211h-11.042v-53.804H87.19v53.805H62.592c-1.576,0-2.743-0.614-3.675-1.549c-0.933-0.933-1.423-2.272-1.423-3.55c0-1.651,0.093-23.615,0.093-23.615s0-2.548,0.671-3.938c0.556-1.151,1.128-2.34,2.001-3.271c1.069-1.141,2.372-2.122,3.817-2.705c1.712-0.691,5.486-0.84,5.486-0.84v-1.652H32.727v36.021c0,6.883,2.487,14.945,8.583,21.06c6.096,6.112,13.332,8.872,21.288,8.872h24.598v32.663c0,2.416-0.971,4.989-3.163,7.127c-2.192,2.144-4.924,2.961-6.157,3.271c-1.227,0.313-1.478,0.36-3.675,0.648v1.407l88.458-0.056c14.516,0,29.549-6.198,39.407-16.687c7.641-8.13,15.203-19.892,15.203-37.756c0-9.63-0.393-73.733,0-93.533C217.624,84.037,206.648,69.21,199.701,62.994z M192.448,199.221c0,6.914-2.901,13.752-7.606,18.383c-4.705,4.625-11.859,7.602-18.508,7.602h-54.333v-20.247h14.342c8.648,0,18.847-2.558,27.757-11.135c8.914-8.583,11.729-19.984,11.729-28.12v-42.817c0-8.768-2.913-16.233-8.665-21.926c-5.753-5.692-13.351-8.713-21.315-8.713h-23.847V73.591h53.827c8.035,0,14.472,2.852,19.178,7.89c4.711,5.044,7.442,11.647,7.442,17.324V199.221z"/>
</svg>
