<?xml version="1.0" encoding="UTF-8" standalone="no"?>
<!DOCTYPE svg PUBLIC "-//W3C//DTD SVG 1.0//EN" "http://www.w3.org/TR/2001/REC-SVG-20010904/DTD/svg10.dtd">
<svg
   xmlns:svg="http://www.w3.org/2000/svg"
   xmlns="http://www.w3.org/2000/svg"
   version="1.0"
   width="199"
   height="199"
   viewBox="-0.528 -0.455 199 199"
   id="svg2"
   xml:space="preserve">
	<defs
   id="defs4" />
	<g
   id="g6">
		<rect
   width="198.472"
   height="198.472"
   x="0"
   y="0"
   id="rect8"
   style="fill:#051c43" /> 
		<path
   d="M 73.246,182.257 C 110.688,202.228 137.478,183.507 141.534,164.788 C 145.484,146.561 148.516,142.637 152.888,139.202 C 149.453,135.773 149.258,136.083 146.135,129.842 C 142.139,121.854 140.386,101.768 127.285,93.654 C 140.386,84.92 136.836,74.5 140.834,66.512 C 143.952,60.27 144.578,60.583 148.008,57.152 C 143.64,53.719 139.947,49.792 135.997,31.568 C 131.941,12.846 99.183,-6.182 69.544,22.52 C 57.687,-0.879 40.838,14.719 40.838,20.96 C 51.136,21.271 58.47,27.199 58.47,34.997 C 58.47,39.056 58.47,78.718 58.47,85.58 C 58.47,92.445 50.199,97.107 47.701,98.979 C 50.2,100.852 58.47,105.508 58.47,112.373 C 58.47,119.238 58.47,162.916 58.47,166.969 C 58.47,174.771 51.136,180.702 40.838,181.015 C 40.837,187.249 55.151,198.792 73.246,182.257 z M 78.277,139.202 C 78.277,129.367 78.277,121.42 78.277,118.767 C 78.277,114.402 86.075,105.043 102.611,105.043 C 118.212,105.043 131.085,119.939 125.543,129.841 C 122.425,136.082 122.271,135.772 118.838,139.201 C 122.271,142.636 122.425,142.323 125.543,148.562 C 127.418,153.244 134.75,175.081 102.611,175.081 C 86.074,175.081 78.277,165.723 78.277,161.352 C 78.277,158.704 78.277,149.041 78.277,139.202 z M 101.831,88.192 C 85.295,88.192 78.277,82.733 77.961,71.629 C 77.898,69.242 77.961,66.003 77.961,57.151 C 77.961,48.298 77.961,46.448 77.961,44.061 C 77.961,37.635 85.295,25.798 101.831,25.779 C 114.937,25.764 129.756,39.969 124.219,48.883 C 122.035,52.628 121.183,53.905 118.22,57.151 C 129.454,66.197 124.454,87.726 101.831,88.192 z"
   id="path10"
   style="fill:#ed171f" />
		<path
   d="M 71.924,184.736 C 90.511,194.647 108.884,196.336 123.663,189.496 C 134.376,184.535 142.082,175.521 144.279,165.384 C 148.129,147.613 150.876,144.357 154.621,141.41 L 157.129,139.44 C 157.143,139.457 154.873,137.218 154.873,137.218 L 153.609,135.974 C 151.465,133.876 151.132,133.553 148.648,128.588 C 147.638,126.566 146.739,123.515 145.693,119.983 C 142.91,110.564 139.091,97.665 128.76,91.263 L 128.839,95.987 C 138.744,89.385 140.151,81.57 141.282,75.29 C 141.78,72.551 142.243,69.963 143.345,67.766 C 145.575,63.297 146.257,62.664 148.072,60.976 C 148.618,60.467 149.232,59.897 149.992,59.138 L 152.228,56.898 L 149.741,54.942 C 146.462,52.361 142.745,49.442 138.745,30.971 C 136.431,20.302 126.422,10.575 113.842,6.766 C 104.718,4.005 86.576,2.113 67.587,20.501 L 72.045,21.249 C 64.719,6.792 55.654,6.534 50.906,7.669 C 43.655,9.401 38.029,16.236 38.029,20.959 L 38.029,23.682 L 40.755,23.765 C 49.391,24.025 55.655,28.749 55.655,34.995 L 55.655,85.578 C 55.655,90.072 50.255,93.793 47.35,95.791 C 46.834,96.149 46.386,96.45 46.015,96.727 L 43.022,98.977 L 46.015,101.218 C 46.39,101.497 46.834,101.805 47.35,102.163 C 50.254,104.162 55.655,107.879 55.655,112.371 L 55.655,166.967 C 55.655,173.217 49.391,177.942 40.755,178.204 L 38.029,178.288 L 38.029,181.013 C 38.029,185.152 41.672,189.649 46.878,191.947 C 50.923,193.73 61.768,196.554 75.14,184.334 L 71.924,184.736 z M 40.921,183.813 C 52.717,183.459 61.272,176.373 61.272,166.967 L 61.272,112.371 C 61.272,104.926 54.02,99.933 50.533,97.538 C 50.067,97.217 49.666,96.937 49.387,96.727 L 49.387,101.218 C 49.666,101.012 50.067,100.739 50.533,100.416 C 54.019,98.015 61.272,93.023 61.272,85.577 L 61.272,34.996 C 61.272,25.594 52.717,18.512 40.921,18.15 L 43.646,20.959 C 43.646,19.29 47.059,14.363 52.21,13.133 C 59.158,11.47 64.108,18.011 67.032,23.788 L 68.757,27.186 L 71.494,24.534 C 88.415,8.146 104.27,9.734 112.213,12.14 C 122.737,15.327 131.388,23.561 133.249,32.161 C 137.354,51.1 141.405,55.53 146.27,59.356 L 146.022,55.162 C 145.332,55.851 144.755,56.389 144.251,56.861 C 142.003,58.951 140.902,60.092 138.319,65.251 C 136.862,68.17 136.301,71.284 135.758,74.294 C 134.668,80.334 133.637,86.036 125.725,91.315 L 122.088,93.738 L 125.803,96.039 C 134.311,101.308 137.637,112.546 140.303,121.574 C 141.426,125.362 142.388,128.632 143.623,131.096 C 146.424,136.696 147.134,137.497 149.683,139.991 L 150.897,141.187 L 151.148,136.991 C 145.758,141.226 142.696,146.159 138.792,164.191 C 136.992,172.492 130.292,180.235 121.303,184.396 C 108.16,190.484 91.565,188.843 74.568,179.778 L 72.816,178.845 L 71.354,180.183 C 63.651,187.219 55.557,189.634 49.142,186.808 C 45.556,185.226 43.646,182.422 43.646,181.011 L 40.921,183.813 z"
   id="path12"
   style="fill:#ffffff" />
		<path
   d="M 81.086,139.202 L 81.086,118.767 C 81.086,116.137 87.565,107.85 102.611,107.85 C 111.699,107.85 119.145,113.479 122.214,118.71 C 123.422,120.779 125.152,124.793 123.095,128.471 C 120.521,133.612 120.241,133.889 118.038,136.046 L 116.85,137.218 L 114.829,139.213 C 114.829,139.193 116.85,141.19 116.85,141.19 L 118.038,142.358 C 120.24,144.516 120.52,144.796 123.036,149.821 C 124.126,152.571 126.485,160.048 122.846,165.423 C 119.772,169.974 112.963,172.276 102.612,172.276 C 87.566,172.276 81.087,163.986 81.087,161.353 L 81.087,139.202 L 81.086,139.202 z M 75.469,161.352 C 75.469,167.29 84.539,177.888 102.612,177.888 C 114.939,177.888 123.316,174.754 127.501,168.575 C 132.647,160.966 129.67,151.316 128.151,147.523 C 125.222,141.637 124.574,140.904 121.968,138.347 L 120.823,137.218 L 120.823,141.189 L 121.968,140.06 C 124.573,137.505 125.222,136.768 128.06,131.099 C 130.499,126.739 130.156,121.149 127.056,115.872 C 123.076,109.082 113.972,102.235 102.612,102.235 C 84.539,102.235 75.469,112.836 75.469,118.767 L 75.469,139.202 L 75.469,161.352 L 75.469,161.352 z"
   id="path14"
   style="fill:#ffffff" />
		<path
   d="M 101.831,85.383 C 83.616,85.383 80.963,78.389 80.774,71.547 C 80.735,70.186 80.74,68.537 80.751,65.544 L 80.774,57.15 L 80.774,44.06 C 80.774,38.841 87.129,28.603 101.837,28.586 C 109.849,28.575 118.151,34.573 121.251,40.135 C 122.35,42.109 123.345,44.974 121.836,47.4 C 119.66,51.129 118.937,52.205 116.149,55.256 L 114.131,57.462 L 116.459,59.337 C 120.736,62.778 122.286,68.553 120.414,74.043 C 118.056,80.95 111.09,85.193 101.831,85.383 z M 120.297,59.042 C 123.344,55.707 124.33,54.262 126.645,50.296 C 128.906,46.659 128.747,42.056 126.156,37.405 C 122.201,30.301 112.018,22.958 101.829,22.971 C 82.982,22.991 75.159,36.717 75.159,44.06 L 75.159,57.15 L 75.136,65.518 C 75.123,68.57 75.12,70.249 75.159,71.703 C 75.525,84.689 84.248,90.998 101.831,90.998 C 113.667,90.757 122.581,85.092 125.73,75.857 C 128.375,68.106 126.117,59.905 119.981,54.961 L 120.297,59.042 z"
   id="path16"
   style="fill:#ffffff" />
	</g>
</svg>