<?xml version="1.0" encoding="UTF-8"?>
<!DOCTYPE svg PUBLIC "-//W3C//DTD SVG 1.1//EN" "http://www.w3.org/Graphics/SVG/1.1/DTD/svg11.dtd">
<!-- Creator: CorelDRAW -->
<svg xmlns="http://www.w3.org/2000/svg" xml:space="preserve" width="749px" height="861px" style="shape-rendering:geometricPrecision; text-rendering:geometricPrecision; image-rendering:optimizeQuality; fill-rule:evenodd; clip-rule:evenodd"
viewBox="0 0 749.616 861.051"
 xmlns:xlink="http://www.w3.org/1999/xlink">
 <defs>
  <style type="text/css">
   <![CDATA[
    .str0 {stroke:#0F1C43;stroke-width:3.13141}
    .fil0 {fill:#0F1C43}
   ]]>
  </style>
 </defs>
 <g id="Capa_x0020_1">
  <metadata id="CorelCorpID_0Corel-Layer"/>
  <path class="fil0 str0" d="M2.96361 231.26c11.8781,0.444306 74.5665,-67.1918 83.7622,-74.1069 67.0252,91.7527 68.8827,123.512 223.384,262.9 -9.30088,-63.5203 -119.626,-251.998 -176.841,-310.545 27.9263,-28.2288 86.1657,-84.8907 102.373,-104.1 17.1672,49.3959 78.1812,241.727 141.479,358.18l0 0c48.395,-91.7527 132.938,-324.667 132.16,-359.947 27.6663,25.6126 70.0112,81.1011 100.525,107.635 -59.5783,45.8746 -161.955,255.841 -199.192,354.653 -10.7898,28.6601 -1.85403,45.8746 -1.85403,45.8746 33.3726,25.6126 145.195,130.568 165.675,149.978 -40.9423,-264.663 44.6834,-441.109 104.249,-504.63 9.54548,10.0642 38.3651,34.182 68.8768,65.2846 -31.6402,42.3449 -94.22,152.947 -96.796,268.196 -3.72697,165.857 24.1922,238.201 68.8674,303.484 -19.9819,24.4959 -34.9513,22.8888 -63.2828,56.4646 -44.8276,-41.1574 -215.687,-195.336 -245.729,-222.322l0 0 5.59636 125.275c1.42627,7.31332 3.02979,73.0103 31.6402,104.109 -62.8492,0.0815348 -74.9234,0.0874431 -137.75,1.76068 20.9793,-28.3599 27.4441,-90.1834 27.9263,-109.393l-1.86939 -199.386c-24.7996,-23.7833 -147.323,-135.036 -158.219,-146.451l0 0c13.0219,67.0512 14.8949,275.256 -78.1742,432.299 -7.63828,-10.9859 -85.3504,-103.405 -83.78,-105.872 28.6069,-44.8276 79.084,-145.742 80.0412,-239.964 1.74532,-172.061 -65.4145,-217.301 -93.069,-259.38z"/>
 </g>
</svg>
